<svg xmlns="http://www.w3.org/2000/svg" style="display:none" aria-hidden="true">
  <symbol id="ph-user-circle" viewBox="0 0 256 256"><rect width="256" height="256" fill="none"/><circle cx="128" cy="128" r="96" fill="none" stroke="currentColor" stroke-linecap="round" stroke-linejoin="round" stroke-width="24"/><circle cx="128" cy="120" r="40" fill="none" stroke="currentColor" stroke-linecap="round" stroke-linejoin="round" stroke-width="24"/><path d="M63.8,199.37a72,72,0,0,1,128.4,0" fill="none" stroke="currentColor" stroke-linecap="round" stroke-linejoin="round" stroke-width="24"/></symbol>
  <symbol id="ph-monitor-play" viewBox="0 0 256 256"><rect width="256" height="256" fill="none"/><polygon points="156 120 116 92 116 148 156 120" stroke="currentColor" stroke-linecap="round" stroke-linejoin="round" stroke-width="24"/><rect x="32" y="48" width="192" height="144" rx="16" transform="translate(256 240) rotate(180)" fill="none" stroke="currentColor" stroke-linecap="round" stroke-linejoin="round" stroke-width="24"/><line x1="160" y1="228" x2="96" y2="228" fill="none" stroke="currentColor" stroke-linecap="round" stroke-linejoin="round" stroke-width="24"/></symbol>
  <symbol id="ph-music-notes" viewBox="0 0 256 256"><rect width="256" height="256" fill="none"/><circle cx="180" cy="164" r="28" fill="none" stroke="currentColor" stroke-linecap="round" stroke-linejoin="round" stroke-width="24"/><circle cx="52" cy="196" r="28" fill="none" stroke="currentColor" stroke-linecap="round" stroke-linejoin="round" stroke-width="24"/><line x1="208" y1="72" x2="80" y2="104" fill="none" stroke="currentColor" stroke-linecap="round" stroke-linejoin="round" stroke-width="24"/><polyline points="80 196 80 56 208 24 208 164" fill="none" stroke="currentColor" stroke-linecap="round" stroke-linejoin="round" stroke-width="24"/></symbol>
  <symbol id="ph-plus" viewBox="0 0 256 256"><rect width="256" height="256" fill="none"/><line x1="40" y1="128" x2="216" y2="128" fill="none" stroke="currentColor" stroke-linecap="round" stroke-linejoin="round" stroke-width="24"/><line x1="128" y1="40" x2="128" y2="216" fill="none" stroke="currentColor" stroke-linecap="round" stroke-linejoin="round" stroke-width="24"/></symbol>
  <symbol id="ph-x" viewBox="0 0 256 256"><rect width="256" height="256" fill="none"/><line x1="200" y1="56" x2="56" y2="200" fill="none" stroke="currentColor" stroke-linecap="round" stroke-linejoin="round" stroke-width="24"/><line x1="200" y1="200" x2="56" y2="56" fill="none" stroke="currentColor" stroke-linecap="round" stroke-linejoin="round" stroke-width="24"/></symbol>
  <symbol id="ph-check" viewBox="0 0 256 256"><rect width="256" height="256" fill="none"/><polyline points="40 144 96 200 224 72" fill="none" stroke="currentColor" stroke-linecap="round" stroke-linejoin="round" stroke-width="24"/></symbol>
  <symbol id="ph-caret-down" viewBox="0 0 256 256"><rect width="256" height="256" fill="none"/><polyline points="208 96 128 176 48 96" fill="none" stroke="currentColor" stroke-linecap="round" stroke-linejoin="round" stroke-width="24"/></symbol>
  <symbol id="ph-caret-right" viewBox="0 0 256 256"><rect width="256" height="256" fill="none"/><polyline points="96 48 176 128 96 208" fill="none" stroke="currentColor" stroke-linecap="round" stroke-linejoin="round" stroke-width="24"/></symbol>
  <symbol id="ph-arrow-left" viewBox="0 0 256 256"><rect width="256" height="256" fill="none"/><line x1="216" y1="128" x2="40" y2="128" fill="none" stroke="currentColor" stroke-linecap="round" stroke-linejoin="round" stroke-width="24"/><polyline points="112 56 40 128 112 200" fill="none" stroke="currentColor" stroke-linecap="round" stroke-linejoin="round" stroke-width="24"/></symbol>
  <symbol id="ph-arrow-elbow-up-right" viewBox="0 0 256 256"><rect width="256" height="256" fill="none"/><polyline points="168 128 216 80 168 32" fill="none" stroke="currentColor" stroke-linecap="round" stroke-linejoin="round" stroke-width="24"/><polyline points="72 224 72 80 216 80" fill="none" stroke="currentColor" stroke-linecap="round" stroke-linejoin="round" stroke-width="24"/></symbol>
  <symbol id="ph-arrow-square-out" viewBox="0 0 256 256"><rect width="256" height="256" fill="none"/><line x1="136" y1="120" x2="216" y2="40" fill="none" stroke="currentColor" stroke-linecap="round" stroke-linejoin="round" stroke-width="24"/><polyline points="216 104 215.99 40.01 152 40" fill="none" stroke="currentColor" stroke-linecap="round" stroke-linejoin="round" stroke-width="24"/><path d="M184,140v68a8,8,0,0,1-8,8H48a8,8,0,0,1-8-8V80a8,8,0,0,1,8-8h68" fill="none" stroke="currentColor" stroke-linecap="round" stroke-linejoin="round" stroke-width="24"/></symbol>
  <symbol id="ph-pencil-simple" viewBox="0 0 256 256"><rect width="256" height="256" fill="none"/><path d="M92.69,216H48a8,8,0,0,1-8-8V163.31a8,8,0,0,1,2.34-5.65L165.66,34.34a8,8,0,0,1,11.31,0L221.66,79a8,8,0,0,1,0,11.31L98.34,213.66A8,8,0,0,1,92.69,216Z" fill="none" stroke="currentColor" stroke-linecap="round" stroke-linejoin="round" stroke-width="24"/><line x1="136" y1="64" x2="192" y2="120" fill="none" stroke="currentColor" stroke-linecap="round" stroke-linejoin="round" stroke-width="24"/></symbol>
  <symbol id="ph-trash" viewBox="0 0 256 256"><rect width="256" height="256" fill="none"/><line x1="216" y1="60" x2="40" y2="60" fill="none" stroke="currentColor" stroke-linecap="round" stroke-linejoin="round" stroke-width="24"/><line x1="104" y1="104" x2="104" y2="168" fill="none" stroke="currentColor" stroke-linecap="round" stroke-linejoin="round" stroke-width="24"/><line x1="152" y1="104" x2="152" y2="168" fill="none" stroke="currentColor" stroke-linecap="round" stroke-linejoin="round" stroke-width="24"/><path d="M200,60V208a8,8,0,0,1-8,8H64a8,8,0,0,1-8-8V60" fill="none" stroke="currentColor" stroke-linecap="round" stroke-linejoin="round" stroke-width="24"/><path d="M168,60V36a16,16,0,0,0-16-16H104A16,16,0,0,0,88,36V60" fill="none" stroke="currentColor" stroke-linecap="round" stroke-linejoin="round" stroke-width="24"/></symbol>
  <symbol id="ph-folder" viewBox="0 0 256 256"><rect width="256" height="256" fill="none"/><path d="M216.89,208H39.38A7.4,7.4,0,0,1,32,200.62V80H216a8,8,0,0,1,8,8V200.89A7.11,7.11,0,0,1,216.89,208Z" fill="none" stroke="currentColor" stroke-linecap="round" stroke-linejoin="round" stroke-width="24"/><path d="M32,80V52a8,8,0,0,1,8-8H92.41a8,8,0,0,1,6,2.69L128,80" fill="none" stroke="currentColor" stroke-linecap="round" stroke-linejoin="round" stroke-width="24"/></symbol>
  <symbol id="ph-folder-plus" viewBox="0 0 256 256"><rect width="256" height="256" fill="none"/><path d="M216.89,208H39.38A7.4,7.4,0,0,1,32,200.62V80H216a8,8,0,0,1,8,8V200.89A7.11,7.11,0,0,1,216.89,208Z" fill="none" stroke="currentColor" stroke-linecap="round" stroke-linejoin="round" stroke-width="24"/><path d="M32,80V52a8,8,0,0,1,8-8H92.41a8,8,0,0,1,6,2.69L128,80" fill="none" stroke="currentColor" stroke-linecap="round" stroke-linejoin="round" stroke-width="24"/><line x1="104" y1="144" x2="152" y2="144" fill="none" stroke="currentColor" stroke-linecap="round" stroke-linejoin="round" stroke-width="24"/><line x1="128" y1="120" x2="128" y2="168" fill="none" stroke="currentColor" stroke-linecap="round" stroke-linejoin="round" stroke-width="24"/></symbol>
  <symbol id="ph-play" viewBox="0 0 256 256"><rect width="256" height="256" fill="none"/><path d="M72,39.88V216.12a8,8,0,0,0,12.15,6.69l144.08-88.12a7.82,7.82,0,0,0,0-13.38L84.15,33.19A8,8,0,0,0,72,39.88Z" fill="none" stroke="currentColor" stroke-linecap="round" stroke-linejoin="round" stroke-width="24"/></symbol>
  <symbol id="ph-pause" viewBox="0 0 256 256"><rect width="256" height="256" fill="none"/><rect x="152" y="40" width="56" height="176" rx="8" fill="none" stroke="currentColor" stroke-linecap="round" stroke-linejoin="round" stroke-width="24"/><rect x="48" y="40" width="56" height="176" rx="8" fill="none" stroke="currentColor" stroke-linecap="round" stroke-linejoin="round" stroke-width="24"/></symbol>
  <symbol id="ph-skip-back" viewBox="0 0 256 256"><rect width="256" height="256" fill="none"/><line x1="56" y1="40" x2="56" y2="216" fill="none" stroke="currentColor" stroke-linecap="round" stroke-linejoin="round" stroke-width="24"/><path d="M200,47.88V208.12a8,8,0,0,1-12.19,6.65L59.7,134.65a7.83,7.83,0,0,1,0-13.3L187.81,41.23A8,8,0,0,1,200,47.88Z" fill="none" stroke="currentColor" stroke-linecap="round" stroke-linejoin="round" stroke-width="24"/></symbol>
  <symbol id="ph-skip-forward" viewBox="0 0 256 256"><rect width="256" height="256" fill="none"/><line x1="200" y1="40" x2="200" y2="216" fill="none" stroke="currentColor" stroke-linecap="round" stroke-linejoin="round" stroke-width="24"/><path d="M56,47.88V208.12a8,8,0,0,0,12.19,6.65L196.3,134.65a7.83,7.83,0,0,0,0-13.3L68.19,41.23A8,8,0,0,0,56,47.88Z" fill="none" stroke="currentColor" stroke-linecap="round" stroke-linejoin="round" stroke-width="24"/></symbol>
  <symbol id="ph-shuffle" viewBox="0 0 256 256"><rect width="256" height="256" fill="none"/><path d="M32,72H55.06a64,64,0,0,1,52.08,26.8l41.72,58.4A64,64,0,0,0,200.94,184H232" fill="none" stroke="currentColor" stroke-linecap="round" stroke-linejoin="round" stroke-width="24"/><polyline points="208 48 232 72 208 96" fill="none" stroke="currentColor" stroke-linecap="round" stroke-linejoin="round" stroke-width="24"/><polyline points="208 160 232 184 208 208" fill="none" stroke="currentColor" stroke-linecap="round" stroke-linejoin="round" stroke-width="24"/><path d="M152.77,93.86A64,64,0,0,1,200.94,72H232" fill="none" stroke="currentColor" stroke-linecap="round" stroke-linejoin="round" stroke-width="24"/><path d="M32,184H55.06a64,64,0,0,0,48.17-21.86" fill="none" stroke="currentColor" stroke-linecap="round" stroke-linejoin="round" stroke-width="24"/></symbol>
  <symbol id="ph-corners-out" viewBox="0 0 256 256"><rect width="256" height="256" fill="none"/><polyline points="168 48 208 48 208 88" fill="none" stroke="currentColor" stroke-linecap="round" stroke-linejoin="round" stroke-width="24"/><polyline points="88 208 48 208 48 168" fill="none" stroke="currentColor" stroke-linecap="round" stroke-linejoin="round" stroke-width="24"/><polyline points="208 168 208 208 168 208" fill="none" stroke="currentColor" stroke-linecap="round" stroke-linejoin="round" stroke-width="24"/><polyline points="48 88 48 48 88 48" fill="none" stroke="currentColor" stroke-linecap="round" stroke-linejoin="round" stroke-width="24"/></symbol>
  <symbol id="ph-corners-in" viewBox="0 0 256 256"><rect width="256" height="256" fill="none"/><polyline points="208 96 160 96 160 48" fill="none" stroke="currentColor" stroke-linecap="round" stroke-linejoin="round" stroke-width="24"/><polyline points="48 160 96 160 96 208" fill="none" stroke="currentColor" stroke-linecap="round" stroke-linejoin="round" stroke-width="24"/><polyline points="160 208 160 160 208 160" fill="none" stroke="currentColor" stroke-linecap="round" stroke-linejoin="round" stroke-width="24"/><polyline points="96 48 96 96 48 96" fill="none" stroke="currentColor" stroke-linecap="round" stroke-linejoin="round" stroke-width="24"/></symbol>
  <symbol id="ph-vinyl-record" viewBox="0 0 256 256"><rect width="256" height="256" fill="none"/><circle cx="128" cy="128" r="96" fill="none" stroke="currentColor" stroke-linecap="round" stroke-linejoin="round" stroke-width="24"/><path d="M72,128a56,56,0,0,1,56-56" fill="none" stroke="currentColor" stroke-linecap="round" stroke-linejoin="round" stroke-width="24"/><path d="M184,128a56,56,0,0,1-56,56" fill="none" stroke="currentColor" stroke-linecap="round" stroke-linejoin="round" stroke-width="24"/><circle cx="128" cy="128" r="28"/></symbol>
  <symbol id="ph-film-strip" viewBox="0 0 256 256"><rect width="256" height="256" fill="none"/><rect x="32" y="48" width="192" height="160" rx="8" fill="none" stroke="currentColor" stroke-linecap="round" stroke-linejoin="round" stroke-width="24"/><line x1="128" y1="48" x2="128" y2="208" fill="none" stroke="currentColor" stroke-linecap="round" stroke-linejoin="round" stroke-width="24"/><line x1="32" y1="88" x2="224" y2="88" fill="none" stroke="currentColor" stroke-linecap="round" stroke-linejoin="round" stroke-width="24"/><line x1="32" y1="168" x2="224" y2="168" fill="none" stroke="currentColor" stroke-linecap="round" stroke-linejoin="round" stroke-width="24"/><line x1="80" y1="48" x2="80" y2="88" fill="none" stroke="currentColor" stroke-linecap="round" stroke-linejoin="round" stroke-width="24"/><line x1="176" y1="48" x2="176" y2="88" fill="none" stroke="currentColor" stroke-linecap="round" stroke-linejoin="round" stroke-width="24"/><line x1="80" y1="168" x2="80" y2="208" fill="none" stroke="currentColor" stroke-linecap="round" stroke-linejoin="round" stroke-width="24"/><line x1="176" y1="168" x2="176" y2="208" fill="none" stroke="currentColor" stroke-linecap="round" stroke-linejoin="round" stroke-width="24"/></symbol>
</svg>
